
<svg xmlns="http://www.w3.org/2000/svg" width="66" height="36" viewBox="0 0 66 36">
    <path fill="#258AFF" fill-rule="nonzero" d="M63.153 9H59.36v10.526l-7.18-9.887c-.277-.36-.717-.645-1.213-.645l-5.294.005v21.044h6.082v-10.5l7.167 9.877c.277.368.73.602 1.232.602h2.999c1.263 0 2.287-1.005 2.287-2.248V11.247C65.44 10.005 64.416 9 63.153 9zM28.936 19.542c0-2.483-2.056-4.503-4.584-4.503-2.526 0-4.58 2.02-4.58 4.503 0 2.484 2.054 4.503 4.582 4.503 2.526 0 4.582-2.019 4.582-4.503zm6.096-.008c0 5.794-4.779 10.489-10.674 10.489s-10.673-4.695-10.673-10.488c0-5.793 4.778-10.49 10.673-10.49 5.895 0 10.674 4.695 10.674 10.49zM36.55 2.25v3.728h6.082V0H38.83c-1.263 0-2.28 1.006-2.28 2.25v-.002zm0 27.774h6.082V9.02H36.55v21.002zM8.37 9.02h3.793v15.024C12.165 30.648 6.72 36 0 36v-5.977c3.354 0 6.083-2.681 6.083-5.978v-12.77c0-1.242 1.023-2.254 2.288-2.254z"/>
</svg>
